<svg width="166" height="166" viewBox="0 0 166 166" fill="none" xmlns="http://www.w3.org/2000/svg">
<path d="M55.2017 28.8262L57.7055 27.9622L63.3234 36.4241L63.3783 36.3924L63.0194 26.1302L65.3584 25.3614L71.2824 33.7193L71.3373 33.6876L70.6173 23.5611L73.0114 22.7606L73.5792 36.6827L71.3815 37.4427L65.1668 28.9618L65.1119 28.9935L65.3141 39.4916L63.1164 40.2515L55.2017 28.8262Z" fill="white"/>
<path d="M82.2772 22.5728L84.3189 22.5573L90.1316 35.9233L87.3833 35.9832L86.1307 32.9258L80.2884 32.9545L79.0753 36.0541L76.3818 36.0823L82.2772 22.5728ZM85.272 30.8042L83.231 25.3665L81.1022 30.8124L85.272 30.8042Z" fill="white"/>
<path d="M94.8533 25.7086L90.8316 24.8316L91.2845 22.8252L101.708 25.0229L101.255 27.0292L97.2333 26.1522L94.7193 37.2733L92.3943 36.798L94.8533 25.7086Z" fill="white"/>
<path d="M112.414 33.1644C112.295 32.5786 112.067 32.0561 111.618 31.6605C111.225 31.2331 110.722 30.8692 110.227 30.6461C109.614 30.3456 108.955 30.2176 108.358 30.1987C107.761 30.1797 107.172 30.3016 106.56 30.5096C106.034 30.7405 105.485 31.0576 105.03 31.5383C104.544 31.9645 104.207 32.5226 103.901 33.1351C103.572 33.8339 103.408 34.4376 103.331 35.0641C103.253 35.6906 103.316 36.3082 103.49 36.8624C103.663 37.4166 103.947 37.9073 104.371 38.3892C104.765 38.8165 105.299 39.235 105.912 39.5354C106.525 39.8359 107.185 39.9639 107.837 39.9511C108.488 39.9384 109.046 39.762 109.54 39.4766L110.705 41.4942C109.849 41.9153 108.954 42.1412 107.989 42.1172C107.023 42.0932 106.017 41.874 104.996 41.3732C104.061 40.8952 103.235 40.3538 102.63 39.6855C101.993 38.9627 101.497 38.231 101.221 37.3725C100.89 36.5457 100.811 35.6466 100.872 34.7385C100.934 33.8305 101.192 32.8819 101.646 31.8926C102.1 30.9033 102.68 30.1322 103.41 29.4929C104.139 28.8537 104.908 28.4097 105.772 28.1293C106.635 27.8489 107.538 27.7639 108.449 27.8195C109.391 27.9297 110.342 28.1807 111.245 28.6042C111.654 28.8045 112.008 29.0365 112.393 29.3231C112.778 29.6096 113.108 29.9279 113.438 30.2462C113.769 30.5645 113.989 30.9462 114.296 31.3507C114.516 31.7324 114.682 32.1458 114.792 32.5909L112.414 33.1644Z" fill="white"/>
<path d="M119.254 33.723L121.047 35.3055L117.479 39.401L122.196 43.5118L125.764 39.4164L127.556 40.9988L118.657 51.0809L116.864 49.4984L120.808 45.0402L116.091 40.9293L112.147 45.3875L110.355 43.8051L119.254 33.723Z" fill="white"/>
<path d="M131.527 57.3909C132.556 57.0154 133.482 56.8441 134.448 56.868C135.414 56.892 136.278 57.1202 137.009 57.498C137.826 57.8986 138.51 58.4489 139.115 59.1172C139.721 59.7855 140.225 60.6579 140.564 61.6255C140.902 62.5931 141.1 63.5696 141.125 64.5004C141.15 65.4313 140.947 66.3482 140.594 67.1333C140.242 67.9183 139.717 68.6577 139.074 69.3198C138.399 69.9274 137.552 70.4893 136.524 70.8648C135.55 71.2086 134.569 71.4117 133.658 71.356C132.692 71.332 131.828 71.1039 131.042 70.7577C130.257 70.4116 129.486 69.8385 128.849 69.1157C128.212 68.3929 127.74 67.575 127.37 66.5529C127.031 65.5853 126.833 64.6088 126.895 63.7008C126.925 62.7382 127.104 61.9075 127.48 61.0362C127.833 60.2512 128.358 59.5118 129.087 58.8725C129.675 58.2421 130.499 57.7664 131.527 57.3909ZM132.402 59.794C131.735 60.0338 131.131 60.3826 130.645 60.8088C130.158 61.235 129.758 61.684 129.508 62.2649C129.257 62.8457 129.062 63.3949 129.039 63.9897C129.016 64.5844 129.111 65.2566 129.316 65.8653C129.553 66.5285 129.868 67.0738 130.316 67.4694C130.74 67.9513 131.212 68.2606 131.793 68.5066C132.375 68.7526 132.948 68.8577 133.6 68.845C134.252 68.8322 134.927 68.7332 135.562 68.4389C136.23 68.1991 136.779 67.882 137.265 67.4558C137.751 67.0296 138.151 66.5806 138.402 65.9998C138.684 65.4734 138.848 64.8698 138.871 64.275C138.894 63.6802 138.798 63.0081 138.562 62.3448C138.326 61.6816 138.011 61.1363 137.563 60.7407C137.169 60.3134 136.611 59.9812 136.116 59.758C135.567 59.5666 134.962 59.4069 134.31 59.4197C133.658 59.4324 133.069 59.5543 132.402 59.794Z" fill="white"/>
<path d="M135.671 85.2436C134.878 85.2653 134.108 85.2007 133.44 84.9319C132.772 84.6631 132.214 84.3309 131.735 83.8808C131.255 83.4307 130.854 82.8626 130.563 82.231C130.271 81.5995 130.145 80.8729 130.073 80.1145C130.001 79.3561 130.103 78.6434 130.29 77.9535C130.478 77.2635 130.815 76.7055 131.238 76.1703C131.661 75.635 132.179 75.2634 132.87 74.9374C133.505 74.643 134.204 74.4578 135.052 74.4044L143.564 73.9252L143.7 76.3183L135.275 76.8203C134.851 76.847 134.513 76.8965 134.097 77.064C133.736 77.1997 133.407 77.39 133.109 77.6348C132.811 77.8796 132.576 78.2334 132.427 78.6101C132.278 78.9868 132.192 79.4725 132.225 80.0356C132.257 80.5987 132.367 81.0438 132.588 81.4255C132.808 81.8072 133.052 82.1026 133.374 82.2801C133.696 82.4576 134.018 82.6351 134.419 82.6947C134.819 82.7542 135.22 82.8138 135.558 82.7643L143.983 82.2622L144.119 84.6553L135.671 85.2436Z" fill="white"/>
<path d="M143.648 90.3077L142.688 94.8607C142.555 95.5189 142.36 96.068 142.109 96.6489C141.858 97.2298 141.545 97.7016 141.169 98.0643C140.792 98.4271 140.329 98.767 139.772 98.9434C139.215 99.1197 138.649 99.1553 137.903 99.0045C136.929 98.8398 136.222 98.3757 135.703 97.7303C135.184 97.0848 134.939 96.2808 134.938 95.2637L128.376 97.5981L128.953 94.7927L135.17 92.8757L135.498 91.1598L129.874 90.0445L130.365 87.7249L143.648 90.3077ZM137.103 93.4322C137.009 93.7771 136.97 94.0904 136.963 94.4582C136.955 94.8259 136.971 95.1075 137.074 95.4118C137.176 95.7162 137.302 95.9343 137.515 96.1752C137.727 96.4161 138.018 96.5391 138.45 96.6532C138.795 96.7445 139.133 96.695 139.384 96.6226C139.604 96.4958 139.878 96.3372 140.035 96.1013C140.192 95.8654 140.349 95.6295 140.474 95.3391C140.599 95.0486 140.693 94.7037 140.763 94.445L141.208 92.2979L137.509 91.5983L137.103 93.4322Z" fill="white"/>
<path d="M134.728 114.942L131.937 118.735C131.569 119.238 131.169 119.687 130.683 120.113C130.251 120.508 129.757 120.793 129.231 121.024C128.705 121.255 128.14 121.291 127.598 121.24C127.056 121.189 126.475 120.943 125.885 120.557C125.115 119.984 124.651 119.306 124.461 118.471C124.303 117.689 124.396 116.836 124.827 115.933L117.9 115.352L119.641 113.038L126.073 113.905L127.1 112.512L122.541 109.183L123.991 107.255L134.728 114.942ZM127.527 115.028C127.316 115.296 127.135 115.618 127.01 115.909C126.83 116.231 126.76 116.489 126.666 116.834C126.627 117.148 126.643 117.429 126.746 117.734C126.848 118.038 127.06 118.279 127.359 118.543C127.626 118.752 127.917 118.875 128.2 118.857C128.482 118.839 128.765 118.821 129.04 118.663C129.314 118.504 129.534 118.377 129.777 118.164C130.02 117.951 130.232 117.684 130.389 117.448L131.651 115.701L128.601 113.463L127.527 115.028Z" fill="white"/>
<path d="M125.586 126.254L118.739 132.026L117.402 130.471L122.383 126.286L120.22 123.682L115.482 127.653L114.176 126.153L118.914 122.182L116.508 119.282L111.228 123.711L109.86 122.102L116.951 116.118L125.586 126.254Z" fill="white"/>
<path d="M114.361 134.844L106.419 138.848L105.49 136.985L111.336 134.046L109.801 131.006L104.316 133.81L103.418 132.001L108.904 129.198L107.179 125.831L101.058 128.929L100.098 127.011L108.369 122.818L114.361 134.844Z" fill="white"/>
<path d="M101.608 140.535L99.3156 141.131L96.5372 130.23L91.003 131.68L90.4899 129.65L98.3164 127.604L101.608 140.535Z" fill="white"/>
<path d="M79.334 143.943L76.7498 143.399L76.3674 133.223L71.3221 142.243L68.9107 141.745L68.2141 131.533L63.483 140.589L60.9852 140.069L67.7459 127.804L70.016 128.311L70.87 138.797L76.135 129.65L78.4051 130.157L79.334 143.943Z" fill="white"/>
<path d="M53.0322 135.427L51.2404 134.353L53.1925 119.848L55.5422 121.255L55.0204 124.537L60.0107 127.472L62.6465 125.441L64.9648 126.793L53.0322 135.427ZM54.6935 126.761L53.688 132.504L58.332 128.877L54.6935 126.761Z" fill="white"/>
<path d="M43.8564 126.256L46.8519 129.035L45.3776 130.54L37.6725 123.283L39.1468 121.778L42.1423 124.556L49.9842 116.32L51.7217 117.935L43.8564 126.256Z" fill="white"/>
<path d="M32.7324 110.795C32.5368 111.344 32.5141 111.939 32.6326 112.525C32.7512 113.111 32.9796 113.633 33.2629 114.124C33.6642 114.692 34.0888 115.174 34.6468 115.506C35.2048 115.838 35.6998 116.061 36.3281 116.135C36.9015 116.24 37.5532 116.227 38.142 116.105C38.7857 115.952 39.3665 115.689 39.9392 115.286C40.5668 114.851 41.0531 114.425 41.4215 113.921C41.79 113.418 42.072 112.891 42.2361 112.288C42.4002 111.684 42.3681 111.121 42.3044 110.503C42.1859 109.917 41.9809 109.309 41.5797 108.741C41.1785 108.172 40.7538 107.691 40.1958 107.358C39.6378 107.026 39.1194 106.889 38.5226 106.87L38.6452 104.546C39.5876 104.656 40.4832 104.939 41.2769 105.426C42.0707 105.912 42.7941 106.658 43.4706 107.576C44.0608 108.471 44.4231 109.353 44.5892 110.275C44.7554 111.197 44.7801 112.127 44.6006 112.958C44.4211 113.789 44.0453 114.66 43.5201 115.4C42.995 116.139 42.297 116.833 41.3947 117.426C40.4924 118.02 39.6056 118.387 38.6792 118.558C37.7528 118.729 36.8733 118.728 36.0092 118.5C35.1451 118.272 34.3594 117.926 33.5891 117.353C32.8188 116.779 32.1818 116.057 31.6231 115.216C31.4028 114.834 31.1824 114.453 31.017 114.039C30.8515 113.626 30.6546 113.158 30.599 112.681C30.5434 112.204 30.4329 111.759 30.4637 111.305C30.4945 110.851 30.5253 110.397 30.674 110.02L32.7324 110.795Z" fill="white"/>
<path d="M27.254 106.76L26.5286 104.489L31.7091 102.807L29.8089 96.8516L24.6283 98.5339L23.9029 96.2627L36.7444 92.1203L37.4698 94.3916L31.7869 96.2185L33.6872 102.174L39.3701 100.347L40.0955 102.618L27.254 106.76Z" fill="white"/>
<path d="M29.0254 80.1457C27.9651 79.9581 27.038 79.6209 26.2677 79.0478C25.4739 78.5609 24.8684 77.8927 24.3727 77.161C23.8771 76.4293 23.6011 75.5708 23.435 74.6488C23.2689 73.7269 23.299 72.7643 23.494 71.7066C23.6889 70.6489 24.0647 69.7776 24.5269 68.9291C25.0206 68.1352 25.6321 67.4185 26.3696 66.92C27.1071 66.4215 27.9076 66.0321 28.834 65.8608C29.7604 65.6895 30.7812 65.6817 31.7866 65.901C32.847 66.0885 33.7191 66.4575 34.5128 66.9443C35.3066 67.4312 35.9121 68.0995 36.4078 68.8312C36.9035 69.5628 37.2344 70.3897 37.432 71.3661C37.5981 72.2881 37.5994 73.3052 37.373 74.3084C37.1466 75.3115 36.8023 76.2374 36.3086 77.0313C35.8149 77.8253 35.1719 78.4873 34.4344 78.9858C33.6969 79.4843 32.8649 79.8193 31.97 80.0451C31.0517 80.3572 30.0858 80.3332 29.0254 80.1457ZM29.5325 77.5991C30.2472 77.6954 30.9304 77.7371 31.5507 77.6698C32.171 77.6025 32.7517 77.3399 33.301 77.0228C33.8503 76.7057 34.2502 76.2567 34.5637 75.7849C34.9321 75.2814 35.1826 74.7005 35.2838 73.9878C35.4164 73.3296 35.4077 72.6803 35.2891 72.0944C35.1706 71.5085 34.9107 70.9315 34.5724 70.4724C34.2342 70.0134 33.7546 69.5633 33.1966 69.2311C32.6386 68.8989 32.0023 68.6846 31.3425 68.5566C30.6827 68.4286 29.9995 68.3869 29.3557 68.5404C28.767 68.6622 28.1547 68.8703 27.6604 69.1557C27.166 69.4411 26.7112 69.9218 26.3428 70.4253C25.9744 70.9289 25.7239 71.5097 25.6227 72.2225C25.4901 72.8807 25.4988 73.53 25.6488 74.1704C25.7674 74.7563 26.0273 75.3333 26.4204 75.7606C26.7587 76.2197 27.2383 76.6698 27.7648 76.9475C28.2364 77.2568 28.8727 77.4711 29.5325 77.5991Z" fill="white"/>
<path d="M39.9065 54.0881C40.6373 54.4659 41.2033 54.9389 41.6595 55.4753C42.1156 56.0117 42.407 56.6432 42.612 57.2519C42.762 57.8923 42.8571 58.5644 42.7245 59.2226C42.6233 59.9354 42.4358 60.6253 42.0205 61.3013C41.6916 62.0001 41.2133 62.5671 40.6721 63.025C40.1308 63.4828 39.5816 63.8 38.9144 64.0397C38.3022 64.2478 37.627 64.3468 36.9122 64.2505C36.229 64.2088 35.5063 63.9717 34.7755 63.5939L27.2633 59.7155L28.3913 57.6101L35.8171 61.4657C36.1393 61.6432 36.5164 61.789 36.917 61.8486C37.3175 61.9081 37.7181 61.9677 38.0557 61.9182C38.4482 61.837 38.8093 61.7012 39.1623 61.4247C39.5153 61.1482 39.8368 60.8171 40.1188 60.2908C40.4008 59.7645 40.518 59.3333 40.5489 58.8792C40.5797 58.4252 40.5006 58.0346 40.3117 57.7075C40.1778 57.3486 39.934 57.0531 39.6352 56.7894C39.3365 56.5256 38.9828 56.2936 38.6606 56.1161L31.2348 52.2605L32.3628 50.1552L39.9065 54.0881Z" fill="white"/>
<path d="M35.7332 45.5916L38.8855 42.1722C39.3403 41.6915 39.7717 41.297 40.2895 40.9253C40.8073 40.5537 41.3331 40.3228 41.8355 40.1782C42.3379 40.0335 42.9347 40.0525 43.4531 40.1894C44.0265 40.2946 44.5296 40.6585 45.0641 41.0769C45.8109 41.7363 46.1653 42.4768 46.2684 43.2897C46.3716 44.1026 46.1371 44.965 45.6434 45.759L52.4456 47.1392L50.5245 49.2662L44.2247 47.7414L43.0485 49.0021L47.2389 52.8353L45.6079 54.5767L35.7332 45.5916ZM42.9507 46.2958C43.1624 46.0282 43.374 45.7606 43.5857 45.4929C43.7974 45.2253 43.9226 44.9349 44.0164 44.5899C44.0868 44.3312 44.1256 44.018 44.0231 43.7136C43.9206 43.4093 43.7632 43.1366 43.4645 42.8729C43.1657 42.6091 42.93 42.4544 42.6473 42.4722C42.3331 42.4355 42.0505 42.4533 41.8308 42.5801C41.5796 42.6525 41.3049 42.811 41.0618 43.0241C40.8186 43.2372 40.5755 43.4503 40.3323 43.6634L38.8345 45.2552L41.6177 47.7924L42.9507 46.2958Z" fill="white"/>
</svg>
